<mxfile host="app.diagrams.net" modified="2024-04-19T18:54:02.524Z" agent="Mozilla/5.0 (Windows NT 10.0; Win64; x64; rv:125.0) Gecko/20100101 Firefox/125.0" etag="NGutM2ab-Qb2uvhTSL0r" version="24.2.5" type="device">
  <diagram id="R2lEEEUBdFMjLlhIrx00" name="Page-1">
    <mxGraphModel dx="506" dy="2260" grid="1" gridSize="10" guides="1" tooltips="1" connect="1" arrows="1" fold="1" page="1" pageScale="1" pageWidth="850" pageHeight="1100" math="0" shadow="0" extFonts="Permanent Marker^https://fonts.googleapis.com/css?family=Permanent+Marker">
      <root>
        <mxCell id="0" />
        <mxCell id="1" parent="0" />
        <mxCell id="OE-wlXN0yPYNqNq270pY-6" value="" style="rounded=0;whiteSpace=wrap;html=1;" vertex="1" parent="1">
          <mxGeometry x="3014.38" y="-154" width="110" height="70" as="geometry" />
        </mxCell>
        <mxCell id="1PIRo-R_bocPUixLHrss-4" value="User" style="rounded=0;whiteSpace=wrap;html=1;" parent="1" vertex="1">
          <mxGeometry x="2814.38" y="45" width="120" height="60" as="geometry" />
        </mxCell>
        <mxCell id="1PIRo-R_bocPUixLHrss-6" value="Generate" style="rhombus;whiteSpace=wrap;html=1;" parent="1" vertex="1">
          <mxGeometry x="3024.38" y="40" width="110" height="70" as="geometry" />
        </mxCell>
        <mxCell id="1PIRo-R_bocPUixLHrss-8" value="" style="rounded=0;whiteSpace=wrap;html=1;" parent="1" vertex="1">
          <mxGeometry x="2806.88" y="-330" width="130" height="70" as="geometry" />
        </mxCell>
        <mxCell id="1PIRo-R_bocPUixLHrss-9" value="Friend Request" style="rounded=0;whiteSpace=wrap;html=1;" parent="1" vertex="1">
          <mxGeometry x="2811.88" y="-325" width="120" height="60" as="geometry" />
        </mxCell>
        <mxCell id="1PIRo-R_bocPUixLHrss-12" value="" style="rounded=0;whiteSpace=wrap;html=1;" parent="1" vertex="1">
          <mxGeometry x="3014.38" y="200" width="130" height="70" as="geometry" />
        </mxCell>
        <mxCell id="1PIRo-R_bocPUixLHrss-13" value="Chat" style="whiteSpace=wrap;html=1;" parent="1" vertex="1">
          <mxGeometry x="3019.38" y="205" width="120" height="60" as="geometry" />
        </mxCell>
        <mxCell id="1PIRo-R_bocPUixLHrss-19" value="Add" style="rhombus;whiteSpace=wrap;html=1;" parent="1" vertex="1">
          <mxGeometry x="2819.38" y="235" width="110" height="70" as="geometry" />
        </mxCell>
        <mxCell id="1PIRo-R_bocPUixLHrss-21" value="Has" style="rhombus;whiteSpace=wrap;html=1;" parent="1" vertex="1">
          <mxGeometry x="2611.88" y="40" width="110" height="70" as="geometry" />
        </mxCell>
        <mxCell id="1PIRo-R_bocPUixLHrss-27" value="Contains" style="rhombus;whiteSpace=wrap;html=1;" parent="1" vertex="1">
          <mxGeometry x="3219.38" y="330" width="110" height="70" as="geometry" />
        </mxCell>
        <mxCell id="1PIRo-R_bocPUixLHrss-31" value="" style="rounded=0;whiteSpace=wrap;html=1;" parent="1" vertex="1">
          <mxGeometry x="3399.38" y="330" width="130" height="70" as="geometry" />
        </mxCell>
        <mxCell id="1PIRo-R_bocPUixLHrss-29" value="Message" style="whiteSpace=wrap;html=1;" parent="1" vertex="1">
          <mxGeometry x="3404.38" y="335" width="120" height="60" as="geometry" />
        </mxCell>
        <mxCell id="1PIRo-R_bocPUixLHrss-36" value="(1, 1)" style="text;html=1;align=center;verticalAlign=middle;resizable=0;points=[];autosize=1;strokeColor=none;fillColor=none;" parent="1" vertex="1">
          <mxGeometry x="2741.88" y="45" width="50" height="30" as="geometry" />
        </mxCell>
        <mxCell id="1PIRo-R_bocPUixLHrss-37" value="(1, 1)" style="text;html=1;align=center;verticalAlign=middle;resizable=0;points=[];autosize=1;strokeColor=none;fillColor=none;" parent="1" vertex="1">
          <mxGeometry x="2551.88" y="45" width="50" height="30" as="geometry" />
        </mxCell>
        <mxCell id="1PIRo-R_bocPUixLHrss-38" value="(1:N)" style="text;html=1;align=center;verticalAlign=middle;resizable=0;points=[];autosize=1;strokeColor=none;fillColor=none;" parent="1" vertex="1">
          <mxGeometry x="2951.88" y="45" width="50" height="30" as="geometry" />
        </mxCell>
        <mxCell id="1PIRo-R_bocPUixLHrss-42" value="(1, 1)" style="text;html=1;align=center;verticalAlign=middle;resizable=0;points=[];autosize=1;strokeColor=none;fillColor=none;" parent="1" vertex="1">
          <mxGeometry x="3151.88" y="220" width="50" height="30" as="geometry" />
        </mxCell>
        <mxCell id="1PIRo-R_bocPUixLHrss-43" value="(0, N)" style="text;html=1;align=center;verticalAlign=middle;resizable=0;points=[];autosize=1;strokeColor=none;fillColor=none;" parent="1" vertex="1">
          <mxGeometry x="3339.38" y="335" width="50" height="30" as="geometry" />
        </mxCell>
        <mxCell id="1PIRo-R_bocPUixLHrss-46" value="(0,N)" style="text;html=1;align=center;verticalAlign=middle;resizable=0;points=[];autosize=1;strokeColor=none;fillColor=none;" parent="1" vertex="1">
          <mxGeometry x="2871.88" y="105" width="50" height="30" as="geometry" />
        </mxCell>
        <mxCell id="1PIRo-R_bocPUixLHrss-82" value="(0, N)" style="text;html=1;align=center;verticalAlign=middle;resizable=0;points=[];autosize=1;strokeColor=none;fillColor=none;" parent="1" vertex="1">
          <mxGeometry x="3031.88" y="170" width="50" height="30" as="geometry" />
        </mxCell>
        <mxCell id="1PIRo-R_bocPUixLHrss-85" value="1:N" style="text;html=1;align=center;verticalAlign=middle;resizable=0;points=[];autosize=1;strokeColor=none;fillColor=none;" parent="1" vertex="1">
          <mxGeometry x="3254.38" y="400" width="40" height="30" as="geometry" />
        </mxCell>
        <mxCell id="1PIRo-R_bocPUixLHrss-86" value="1:N" style="text;html=1;align=center;verticalAlign=middle;resizable=0;points=[];autosize=1;strokeColor=none;fillColor=none;" parent="1" vertex="1">
          <mxGeometry x="3059.38" y="10" width="40" height="30" as="geometry" />
        </mxCell>
        <mxCell id="1PIRo-R_bocPUixLHrss-87" value="1:1" style="text;html=1;align=center;verticalAlign=middle;resizable=0;points=[];autosize=1;strokeColor=none;fillColor=none;" parent="1" vertex="1">
          <mxGeometry x="2646.88" y="15" width="40" height="30" as="geometry" />
        </mxCell>
        <mxCell id="1PIRo-R_bocPUixLHrss-88" value="N:M" style="text;html=1;align=center;verticalAlign=middle;resizable=0;points=[];autosize=1;strokeColor=none;fillColor=none;" parent="1" vertex="1">
          <mxGeometry x="2779.38" y="255" width="40" height="30" as="geometry" />
        </mxCell>
        <mxCell id="1PIRo-R_bocPUixLHrss-89" value="" style="rounded=0;whiteSpace=wrap;html=1;" parent="1" vertex="1">
          <mxGeometry x="2809.38" y="530" width="130" height="70" as="geometry" />
        </mxCell>
        <mxCell id="1PIRo-R_bocPUixLHrss-18" value="Favorite" style="rounded=0;whiteSpace=wrap;html=1;" parent="1" vertex="1">
          <mxGeometry x="2814.38" y="535" width="120" height="60" as="geometry" />
        </mxCell>
        <mxCell id="1PIRo-R_bocPUixLHrss-90" value="" style="rounded=0;whiteSpace=wrap;html=1;" parent="1" vertex="1">
          <mxGeometry x="2411.88" y="40" width="130" height="70" as="geometry" />
        </mxCell>
        <mxCell id="1PIRo-R_bocPUixLHrss-23" value="Preferences" style="whiteSpace=wrap;html=1;" parent="1" vertex="1">
          <mxGeometry x="2416.88" y="45" width="120" height="60" as="geometry" />
        </mxCell>
        <mxCell id="1PIRo-R_bocPUixLHrss-96" value="" style="endArrow=none;html=1;rounded=0;exitX=1;exitY=0.5;exitDx=0;exitDy=0;entryX=0;entryY=0.5;entryDx=0;entryDy=0;" parent="1" source="1PIRo-R_bocPUixLHrss-90" target="1PIRo-R_bocPUixLHrss-21" edge="1">
          <mxGeometry width="50" height="50" relative="1" as="geometry">
            <mxPoint x="2781.88" y="160" as="sourcePoint" />
            <mxPoint x="2831.88" y="110" as="targetPoint" />
          </mxGeometry>
        </mxCell>
        <mxCell id="1PIRo-R_bocPUixLHrss-97" value="" style="endArrow=none;html=1;rounded=0;exitX=1;exitY=0.5;exitDx=0;exitDy=0;entryX=0;entryY=0.5;entryDx=0;entryDy=0;" parent="1" target="1PIRo-R_bocPUixLHrss-4" edge="1">
          <mxGeometry width="50" height="50" relative="1" as="geometry">
            <mxPoint x="2721.88" y="75" as="sourcePoint" />
            <mxPoint x="2791.88" y="75" as="targetPoint" />
          </mxGeometry>
        </mxCell>
        <mxCell id="1PIRo-R_bocPUixLHrss-105" value="" style="endArrow=none;html=1;rounded=0;exitX=1;exitY=0.5;exitDx=0;exitDy=0;entryX=0;entryY=0.5;entryDx=0;entryDy=0;" parent="1" source="1PIRo-R_bocPUixLHrss-4" target="1PIRo-R_bocPUixLHrss-6" edge="1">
          <mxGeometry width="50" height="50" relative="1" as="geometry">
            <mxPoint x="2801.88" y="155" as="sourcePoint" />
            <mxPoint x="2894.88" y="155" as="targetPoint" />
          </mxGeometry>
        </mxCell>
        <mxCell id="1PIRo-R_bocPUixLHrss-107" value="" style="endArrow=none;html=1;rounded=0;exitX=0.484;exitY=0.994;exitDx=0;exitDy=0;entryX=0.5;entryY=0;entryDx=0;entryDy=0;exitPerimeter=0;" parent="1" source="1PIRo-R_bocPUixLHrss-4" target="1PIRo-R_bocPUixLHrss-19" edge="1">
          <mxGeometry width="50" height="50" relative="1" as="geometry">
            <mxPoint x="2821.88" y="175" as="sourcePoint" />
            <mxPoint x="2914.88" y="175" as="targetPoint" />
          </mxGeometry>
        </mxCell>
        <mxCell id="1PIRo-R_bocPUixLHrss-109" value="" style="endArrow=none;html=1;rounded=0;exitX=0.5;exitY=1;exitDx=0;exitDy=0;entryX=0.957;entryY=1;entryDx=0;entryDy=0;entryPerimeter=0;" parent="1" source="1PIRo-R_bocPUixLHrss-6" target="1PIRo-R_bocPUixLHrss-82" edge="1">
          <mxGeometry width="50" height="50" relative="1" as="geometry">
            <mxPoint x="2841.88" y="195" as="sourcePoint" />
            <mxPoint x="2934.88" y="195" as="targetPoint" />
          </mxGeometry>
        </mxCell>
        <mxCell id="1PIRo-R_bocPUixLHrss-110" value="" style="endArrow=none;html=1;rounded=0;exitX=1;exitY=0.5;exitDx=0;exitDy=0;entryX=0;entryY=0.5;entryDx=0;entryDy=0;" parent="1" source="1PIRo-R_bocPUixLHrss-12" target="1PIRo-R_bocPUixLHrss-27" edge="1">
          <mxGeometry width="50" height="50" relative="1" as="geometry">
            <mxPoint x="2851.88" y="205" as="sourcePoint" />
            <mxPoint x="2944.88" y="205" as="targetPoint" />
          </mxGeometry>
        </mxCell>
        <mxCell id="1PIRo-R_bocPUixLHrss-111" value="" style="endArrow=none;html=1;rounded=0;exitX=0;exitY=0.5;exitDx=0;exitDy=0;entryX=1;entryY=0.5;entryDx=0;entryDy=0;" parent="1" source="1PIRo-R_bocPUixLHrss-31" target="1PIRo-R_bocPUixLHrss-27" edge="1">
          <mxGeometry width="50" height="50" relative="1" as="geometry">
            <mxPoint x="2861.88" y="215" as="sourcePoint" />
            <mxPoint x="2954.88" y="215" as="targetPoint" />
          </mxGeometry>
        </mxCell>
        <mxCell id="1PIRo-R_bocPUixLHrss-114" value="username" style="ellipse;whiteSpace=wrap;html=1;" parent="1" vertex="1">
          <mxGeometry x="2661.88" y="185" width="70" height="30" as="geometry" />
        </mxCell>
        <mxCell id="1PIRo-R_bocPUixLHrss-115" value="password" style="ellipse;whiteSpace=wrap;html=1;" parent="1" vertex="1">
          <mxGeometry x="2741.88" y="185" width="70" height="30" as="geometry" />
        </mxCell>
        <mxCell id="1PIRo-R_bocPUixLHrss-118" value="" style="endArrow=none;html=1;rounded=0;exitX=0.25;exitY=1;exitDx=0;exitDy=0;entryX=1;entryY=0;entryDx=0;entryDy=0;" parent="1" source="1PIRo-R_bocPUixLHrss-4" target="1PIRo-R_bocPUixLHrss-114" edge="1">
          <mxGeometry width="50" height="50" relative="1" as="geometry">
            <mxPoint x="2861.88" y="40" as="sourcePoint" />
            <mxPoint x="2911.88" y="-10" as="targetPoint" />
          </mxGeometry>
        </mxCell>
        <mxCell id="1PIRo-R_bocPUixLHrss-119" value="" style="endArrow=none;html=1;rounded=0;exitX=0.25;exitY=1;exitDx=0;exitDy=0;entryX=1;entryY=0;entryDx=0;entryDy=0;" parent="1" source="1PIRo-R_bocPUixLHrss-4" target="1PIRo-R_bocPUixLHrss-115" edge="1">
          <mxGeometry width="50" height="50" relative="1" as="geometry">
            <mxPoint x="2884.88" y="55" as="sourcePoint" />
            <mxPoint x="2781.88" y="-30" as="targetPoint" />
          </mxGeometry>
        </mxCell>
        <mxCell id="1PIRo-R_bocPUixLHrss-123" value="&lt;u&gt;preferences_uuid&lt;/u&gt;" style="ellipse;whiteSpace=wrap;html=1;" parent="1" vertex="1">
          <mxGeometry x="2301.88" y="-70" width="97.5" height="30" as="geometry" />
        </mxCell>
        <mxCell id="1PIRo-R_bocPUixLHrss-124" value="theme" style="ellipse;whiteSpace=wrap;html=1;" parent="1" vertex="1">
          <mxGeometry x="2394.38" y="-90" width="70" height="30" as="geometry" />
        </mxCell>
        <mxCell id="1PIRo-R_bocPUixLHrss-127" value="" style="endArrow=none;html=1;rounded=0;exitX=0.5;exitY=0;exitDx=0;exitDy=0;entryX=0.5;entryY=1;entryDx=0;entryDy=0;" parent="1" source="1PIRo-R_bocPUixLHrss-90" target="1PIRo-R_bocPUixLHrss-123" edge="1">
          <mxGeometry width="50" height="50" relative="1" as="geometry">
            <mxPoint x="2884.88" y="55" as="sourcePoint" />
            <mxPoint x="2781.88" y="-30" as="targetPoint" />
          </mxGeometry>
        </mxCell>
        <mxCell id="1PIRo-R_bocPUixLHrss-128" value="" style="endArrow=none;html=1;rounded=0;exitX=0.5;exitY=0;exitDx=0;exitDy=0;entryX=0.5;entryY=1;entryDx=0;entryDy=0;" parent="1" source="1PIRo-R_bocPUixLHrss-90" target="1PIRo-R_bocPUixLHrss-124" edge="1">
          <mxGeometry width="50" height="50" relative="1" as="geometry">
            <mxPoint x="2894.88" y="65" as="sourcePoint" />
            <mxPoint x="2791.88" y="-20" as="targetPoint" />
          </mxGeometry>
        </mxCell>
        <mxCell id="1PIRo-R_bocPUixLHrss-129" value="&lt;u&gt;user_uuid&lt;/u&gt;" style="ellipse;whiteSpace=wrap;html=1;" parent="1" vertex="1">
          <mxGeometry x="2671.88" y="130" width="70" height="30" as="geometry" />
        </mxCell>
        <mxCell id="1PIRo-R_bocPUixLHrss-130" value="" style="endArrow=none;html=1;rounded=0;exitX=0.25;exitY=1;exitDx=0;exitDy=0;entryX=1;entryY=0;entryDx=0;entryDy=0;" parent="1" source="1PIRo-R_bocPUixLHrss-4" target="1PIRo-R_bocPUixLHrss-129" edge="1">
          <mxGeometry width="50" height="50" relative="1" as="geometry">
            <mxPoint x="2884.88" y="55" as="sourcePoint" />
            <mxPoint x="2781.88" y="-30" as="targetPoint" />
          </mxGeometry>
        </mxCell>
        <mxCell id="1PIRo-R_bocPUixLHrss-131" value="push_notification" style="ellipse;whiteSpace=wrap;html=1;" parent="1" vertex="1">
          <mxGeometry x="2471.88" y="-90" width="108.12" height="30" as="geometry" />
        </mxCell>
        <mxCell id="1PIRo-R_bocPUixLHrss-132" value="wallpaper_image" style="ellipse;whiteSpace=wrap;html=1;" parent="1" vertex="1">
          <mxGeometry x="2551.88" y="-60" width="108.12" height="30" as="geometry" />
        </mxCell>
        <mxCell id="1PIRo-R_bocPUixLHrss-133" value="" style="endArrow=none;html=1;rounded=0;exitX=0.5;exitY=0;exitDx=0;exitDy=0;entryX=0.5;entryY=1;entryDx=0;entryDy=0;" parent="1" source="1PIRo-R_bocPUixLHrss-90" target="1PIRo-R_bocPUixLHrss-131" edge="1">
          <mxGeometry width="50" height="50" relative="1" as="geometry">
            <mxPoint x="2486.88" y="50" as="sourcePoint" />
            <mxPoint x="2439.88" y="-50" as="targetPoint" />
          </mxGeometry>
        </mxCell>
        <mxCell id="1PIRo-R_bocPUixLHrss-134" value="" style="endArrow=none;html=1;rounded=0;exitX=0.5;exitY=0;exitDx=0;exitDy=0;entryX=0.5;entryY=1;entryDx=0;entryDy=0;" parent="1" source="1PIRo-R_bocPUixLHrss-90" target="1PIRo-R_bocPUixLHrss-132" edge="1">
          <mxGeometry width="50" height="50" relative="1" as="geometry">
            <mxPoint x="2496.88" y="60" as="sourcePoint" />
            <mxPoint x="2449.88" y="-40" as="targetPoint" />
          </mxGeometry>
        </mxCell>
        <mxCell id="1PIRo-R_bocPUixLHrss-136" value="receiver_user_uuid" style="ellipse;whiteSpace=wrap;html=1;" parent="1" vertex="1">
          <mxGeometry x="2651.88" y="-380" width="130" height="30" as="geometry" />
        </mxCell>
        <mxCell id="1PIRo-R_bocPUixLHrss-137" value="sender_user_uuid" style="ellipse;whiteSpace=wrap;html=1;" parent="1" vertex="1">
          <mxGeometry x="2954.38" y="-380" width="130" height="30" as="geometry" />
        </mxCell>
        <mxCell id="1PIRo-R_bocPUixLHrss-138" value="" style="endArrow=none;html=1;rounded=0;exitX=0.5;exitY=1;exitDx=0;exitDy=0;" parent="1" source="1PIRo-R_bocPUixLHrss-136" edge="1">
          <mxGeometry width="50" height="50" relative="1" as="geometry">
            <mxPoint x="2829.38" y="-280" as="sourcePoint" />
            <mxPoint x="2874.38" y="-330" as="targetPoint" />
          </mxGeometry>
        </mxCell>
        <mxCell id="1PIRo-R_bocPUixLHrss-139" value="" style="endArrow=none;html=1;rounded=0;entryX=0.5;entryY=0;entryDx=0;entryDy=0;exitX=0.5;exitY=1;exitDx=0;exitDy=0;" parent="1" source="1PIRo-R_bocPUixLHrss-137" target="1PIRo-R_bocPUixLHrss-8" edge="1">
          <mxGeometry width="50" height="50" relative="1" as="geometry">
            <mxPoint x="2814.38" y="-370" as="sourcePoint" />
            <mxPoint x="2874.38" y="-400" as="targetPoint" />
          </mxGeometry>
        </mxCell>
        <mxCell id="1PIRo-R_bocPUixLHrss-140" value="&lt;u&gt;chat_uuid&lt;/u&gt;" style="ellipse;whiteSpace=wrap;html=1;" parent="1" vertex="1">
          <mxGeometry x="2971.88" y="298" width="67.5" height="30" as="geometry" />
        </mxCell>
        <mxCell id="1PIRo-R_bocPUixLHrss-141" value="user_uuid_1" style="ellipse;whiteSpace=wrap;html=1;" parent="1" vertex="1">
          <mxGeometry x="3031.88" y="330" width="80" height="30" as="geometry" />
        </mxCell>
        <mxCell id="1PIRo-R_bocPUixLHrss-142" value="user_uuid_2" style="ellipse;whiteSpace=wrap;html=1;" parent="1" vertex="1">
          <mxGeometry x="3091.88" y="298" width="82.5" height="30" as="geometry" />
        </mxCell>
        <mxCell id="1PIRo-R_bocPUixLHrss-143" value="" style="endArrow=none;html=1;rounded=0;exitX=0.478;exitY=1.001;exitDx=0;exitDy=0;exitPerimeter=0;entryX=0.5;entryY=0;entryDx=0;entryDy=0;" parent="1" source="1PIRo-R_bocPUixLHrss-12" target="1PIRo-R_bocPUixLHrss-140" edge="1">
          <mxGeometry width="50" height="50" relative="1" as="geometry">
            <mxPoint x="3031.88" y="300" as="sourcePoint" />
            <mxPoint x="3081.88" y="250" as="targetPoint" />
          </mxGeometry>
        </mxCell>
        <mxCell id="1PIRo-R_bocPUixLHrss-144" value="" style="endArrow=none;html=1;rounded=0;exitX=0.5;exitY=1;exitDx=0;exitDy=0;entryX=0.5;entryY=0;entryDx=0;entryDy=0;" parent="1" source="1PIRo-R_bocPUixLHrss-12" target="1PIRo-R_bocPUixLHrss-141" edge="1">
          <mxGeometry width="50" height="50" relative="1" as="geometry">
            <mxPoint x="3086.88" y="280" as="sourcePoint" />
            <mxPoint x="3015.88" y="308" as="targetPoint" />
          </mxGeometry>
        </mxCell>
        <mxCell id="1PIRo-R_bocPUixLHrss-145" value="" style="endArrow=none;html=1;rounded=0;exitX=0.5;exitY=1;exitDx=0;exitDy=0;entryX=0.5;entryY=0;entryDx=0;entryDy=0;" parent="1" source="1PIRo-R_bocPUixLHrss-12" target="1PIRo-R_bocPUixLHrss-142" edge="1">
          <mxGeometry width="50" height="50" relative="1" as="geometry">
            <mxPoint x="3096.88" y="290" as="sourcePoint" />
            <mxPoint x="3025.88" y="318" as="targetPoint" />
          </mxGeometry>
        </mxCell>
        <mxCell id="OE-wlXN0yPYNqNq270pY-1" value="Send" style="rhombus;whiteSpace=wrap;html=1;" vertex="1" parent="1">
          <mxGeometry x="3014.38" y="-154" width="110" height="70" as="geometry" />
        </mxCell>
        <mxCell id="OE-wlXN0yPYNqNq270pY-2" value="" style="endArrow=none;html=1;rounded=0;exitX=0.5;exitY=0;exitDx=0;exitDy=0;entryX=0.5;entryY=1;entryDx=0;entryDy=0;" edge="1" parent="1" source="1PIRo-R_bocPUixLHrss-4" target="OE-wlXN0yPYNqNq270pY-1">
          <mxGeometry width="50" height="50" relative="1" as="geometry">
            <mxPoint x="2951.88" y="70" as="sourcePoint" />
            <mxPoint x="3001.88" y="20" as="targetPoint" />
          </mxGeometry>
        </mxCell>
        <mxCell id="OE-wlXN0yPYNqNq270pY-3" value="" style="endArrow=none;html=1;rounded=0;exitX=0.5;exitY=1;exitDx=0;exitDy=0;entryX=0.5;entryY=0;entryDx=0;entryDy=0;" edge="1" parent="1" source="1PIRo-R_bocPUixLHrss-8" target="OE-wlXN0yPYNqNq270pY-1">
          <mxGeometry width="50" height="50" relative="1" as="geometry">
            <mxPoint x="2887.38" y="-65" as="sourcePoint" />
            <mxPoint x="3049.38" y="-130" as="targetPoint" />
          </mxGeometry>
        </mxCell>
        <mxCell id="OE-wlXN0yPYNqNq270pY-4" value="" style="endArrow=none;html=1;rounded=0;exitX=0.5;exitY=1;exitDx=0;exitDy=0;entryX=0.5;entryY=0;entryDx=0;entryDy=0;" edge="1" parent="1" source="1PIRo-R_bocPUixLHrss-8" target="1PIRo-R_bocPUixLHrss-4">
          <mxGeometry width="50" height="50" relative="1" as="geometry">
            <mxPoint x="2894.88" y="65" as="sourcePoint" />
            <mxPoint x="3056.88" as="targetPoint" />
          </mxGeometry>
        </mxCell>
        <mxCell id="OE-wlXN0yPYNqNq270pY-7" value="(0:N)" style="text;html=1;align=center;verticalAlign=middle;resizable=0;points=[];autosize=1;strokeColor=none;fillColor=none;" vertex="1" parent="1">
          <mxGeometry x="2911.88" y="-30" width="50" height="30" as="geometry" />
        </mxCell>
        <mxCell id="OE-wlXN0yPYNqNq270pY-8" value="(1:1)" style="text;html=1;align=center;verticalAlign=middle;resizable=0;points=[];autosize=1;strokeColor=none;fillColor=none;" vertex="1" parent="1">
          <mxGeometry x="2944.38" y="-240" width="50" height="30" as="geometry" />
        </mxCell>
        <mxCell id="OE-wlXN0yPYNqNq270pY-9" value="&lt;u&gt;firend_request_uuid&lt;/u&gt;" style="ellipse;whiteSpace=wrap;html=1;" vertex="1" parent="1">
          <mxGeometry x="2749.38" y="-420" width="130" height="30" as="geometry" />
        </mxCell>
        <mxCell id="OE-wlXN0yPYNqNq270pY-11" value="timestamp" style="ellipse;whiteSpace=wrap;html=1;" vertex="1" parent="1">
          <mxGeometry x="2891.88" y="-420" width="130" height="30" as="geometry" />
        </mxCell>
        <mxCell id="OE-wlXN0yPYNqNq270pY-12" value="" style="endArrow=none;html=1;rounded=0;exitX=0.5;exitY=1;exitDx=0;exitDy=0;" edge="1" parent="1" source="OE-wlXN0yPYNqNq270pY-11">
          <mxGeometry width="50" height="50" relative="1" as="geometry">
            <mxPoint x="2824.38" y="-380" as="sourcePoint" />
            <mxPoint x="2874.38" y="-330" as="targetPoint" />
          </mxGeometry>
        </mxCell>
        <mxCell id="OE-wlXN0yPYNqNq270pY-13" value="" style="endArrow=none;html=1;rounded=0;exitX=0.5;exitY=1;exitDx=0;exitDy=0;" edge="1" parent="1" source="OE-wlXN0yPYNqNq270pY-9">
          <mxGeometry width="50" height="50" relative="1" as="geometry">
            <mxPoint x="2967.38" y="-380" as="sourcePoint" />
            <mxPoint x="2874.38" y="-330" as="targetPoint" />
          </mxGeometry>
        </mxCell>
        <mxCell id="OE-wlXN0yPYNqNq270pY-14" value="1:N" style="text;html=1;align=center;verticalAlign=middle;resizable=0;points=[];autosize=1;strokeColor=none;fillColor=none;" vertex="1" parent="1">
          <mxGeometry x="3124.38" y="-136" width="40" height="30" as="geometry" />
        </mxCell>
        <mxCell id="OE-wlXN0yPYNqNq270pY-17" value="" style="rounded=0;whiteSpace=wrap;html=1;" vertex="1" parent="1">
          <mxGeometry x="2809.38" y="380" width="130" height="70" as="geometry" />
        </mxCell>
        <mxCell id="OE-wlXN0yPYNqNq270pY-18" value="UserFavorite" style="rounded=0;whiteSpace=wrap;html=1;" vertex="1" parent="1">
          <mxGeometry x="2814.38" y="385" width="120" height="60" as="geometry" />
        </mxCell>
        <mxCell id="OE-wlXN0yPYNqNq270pY-19" value="" style="endArrow=none;html=1;rounded=0;exitX=0.5;exitY=0;exitDx=0;exitDy=0;entryX=0.5;entryY=1;entryDx=0;entryDy=0;" edge="1" parent="1" source="OE-wlXN0yPYNqNq270pY-17" target="1PIRo-R_bocPUixLHrss-19">
          <mxGeometry width="50" height="50" relative="1" as="geometry">
            <mxPoint x="2882.88" y="115" as="sourcePoint" />
            <mxPoint x="2884.88" y="245" as="targetPoint" />
          </mxGeometry>
        </mxCell>
        <mxCell id="OE-wlXN0yPYNqNq270pY-21" value="" style="endArrow=none;html=1;rounded=0;exitX=0.5;exitY=1;exitDx=0;exitDy=0;entryX=0.5;entryY=0;entryDx=0;entryDy=0;" edge="1" parent="1" source="OE-wlXN0yPYNqNq270pY-17" target="1PIRo-R_bocPUixLHrss-89">
          <mxGeometry width="50" height="50" relative="1" as="geometry">
            <mxPoint x="2884.88" y="390" as="sourcePoint" />
            <mxPoint x="2884.88" y="315" as="targetPoint" />
          </mxGeometry>
        </mxCell>
        <mxCell id="OE-wlXN0yPYNqNq270pY-22" value="(0, N)" style="text;html=1;align=center;verticalAlign=middle;resizable=0;points=[];autosize=1;strokeColor=none;fillColor=none;" vertex="1" parent="1">
          <mxGeometry x="2871.88" y="500" width="50" height="30" as="geometry" />
        </mxCell>
        <mxCell id="OE-wlXN0yPYNqNq270pY-23" value="&lt;u&gt;message_uuid&lt;/u&gt;" style="ellipse;whiteSpace=wrap;html=1;" vertex="1" parent="1">
          <mxGeometry x="3578.13" y="285" width="90" height="30" as="geometry" />
        </mxCell>
        <mxCell id="OE-wlXN0yPYNqNq270pY-24" value="body_text" style="ellipse;whiteSpace=wrap;html=1;" vertex="1" parent="1">
          <mxGeometry x="3581.88" y="330" width="82.5" height="30" as="geometry" />
        </mxCell>
        <mxCell id="OE-wlXN0yPYNqNq270pY-25" value="timestamp" style="ellipse;whiteSpace=wrap;html=1;" vertex="1" parent="1">
          <mxGeometry x="3581.88" y="370" width="82.5" height="30" as="geometry" />
        </mxCell>
        <mxCell id="OE-wlXN0yPYNqNq270pY-26" value="sender" style="ellipse;whiteSpace=wrap;html=1;" vertex="1" parent="1">
          <mxGeometry x="3581.88" y="415" width="82.5" height="30" as="geometry" />
        </mxCell>
        <mxCell id="OE-wlXN0yPYNqNq270pY-29" value="" style="endArrow=none;html=1;rounded=0;exitX=0;exitY=0.5;exitDx=0;exitDy=0;entryX=1;entryY=0.5;entryDx=0;entryDy=0;" edge="1" parent="1" source="OE-wlXN0yPYNqNq270pY-23" target="1PIRo-R_bocPUixLHrss-31">
          <mxGeometry width="50" height="50" relative="1" as="geometry">
            <mxPoint x="3409.88" y="375" as="sourcePoint" />
            <mxPoint x="3339.88" y="375" as="targetPoint" />
          </mxGeometry>
        </mxCell>
        <mxCell id="OE-wlXN0yPYNqNq270pY-30" value="" style="endArrow=none;html=1;rounded=0;exitX=0;exitY=0.5;exitDx=0;exitDy=0;entryX=1;entryY=0.5;entryDx=0;entryDy=0;" edge="1" parent="1" source="OE-wlXN0yPYNqNq270pY-24" target="1PIRo-R_bocPUixLHrss-31">
          <mxGeometry width="50" height="50" relative="1" as="geometry">
            <mxPoint x="3587.88" y="329" as="sourcePoint" />
            <mxPoint x="3539.88" y="375" as="targetPoint" />
          </mxGeometry>
        </mxCell>
        <mxCell id="OE-wlXN0yPYNqNq270pY-31" value="" style="endArrow=none;html=1;rounded=0;exitX=0;exitY=0.5;exitDx=0;exitDy=0;entryX=1;entryY=0.5;entryDx=0;entryDy=0;" edge="1" parent="1" source="OE-wlXN0yPYNqNq270pY-25" target="1PIRo-R_bocPUixLHrss-31">
          <mxGeometry width="50" height="50" relative="1" as="geometry">
            <mxPoint x="3597.88" y="339" as="sourcePoint" />
            <mxPoint x="3549.88" y="385" as="targetPoint" />
          </mxGeometry>
        </mxCell>
        <mxCell id="OE-wlXN0yPYNqNq270pY-32" value="" style="endArrow=none;html=1;rounded=0;exitX=0;exitY=0.5;exitDx=0;exitDy=0;entryX=1;entryY=0.5;entryDx=0;entryDy=0;" edge="1" parent="1" source="OE-wlXN0yPYNqNq270pY-26" target="1PIRo-R_bocPUixLHrss-31">
          <mxGeometry width="50" height="50" relative="1" as="geometry">
            <mxPoint x="3607.88" y="349" as="sourcePoint" />
            <mxPoint x="3559.88" y="395" as="targetPoint" />
          </mxGeometry>
        </mxCell>
        <mxCell id="OE-wlXN0yPYNqNq270pY-34" value="&lt;u&gt;favorite_uuid&lt;/u&gt;" style="ellipse;whiteSpace=wrap;html=1;" vertex="1" parent="1">
          <mxGeometry x="2739.38" y="620" width="80" height="30" as="geometry" />
        </mxCell>
        <mxCell id="OE-wlXN0yPYNqNq270pY-37" value="name_character" style="ellipse;whiteSpace=wrap;html=1;" vertex="1" parent="1">
          <mxGeometry x="2826.88" y="640" width="95" height="30" as="geometry" />
        </mxCell>
        <mxCell id="OE-wlXN0yPYNqNq270pY-39" value="mythic_rating" style="ellipse;whiteSpace=wrap;html=1;" vertex="1" parent="1">
          <mxGeometry x="2929.38" y="620" width="80" height="30" as="geometry" />
        </mxCell>
        <mxCell id="OE-wlXN0yPYNqNq270pY-40" value="" style="endArrow=none;html=1;rounded=0;exitX=0.5;exitY=0;exitDx=0;exitDy=0;entryX=0.5;entryY=1;entryDx=0;entryDy=0;" edge="1" parent="1" source="OE-wlXN0yPYNqNq270pY-34" target="1PIRo-R_bocPUixLHrss-89">
          <mxGeometry width="50" height="50" relative="1" as="geometry">
            <mxPoint x="2884.88" y="460" as="sourcePoint" />
            <mxPoint x="2884.88" y="540" as="targetPoint" />
          </mxGeometry>
        </mxCell>
        <mxCell id="OE-wlXN0yPYNqNq270pY-41" value="" style="endArrow=none;html=1;rounded=0;exitX=0.5;exitY=0;exitDx=0;exitDy=0;entryX=0.5;entryY=1;entryDx=0;entryDy=0;" edge="1" parent="1" source="OE-wlXN0yPYNqNq270pY-37" target="1PIRo-R_bocPUixLHrss-89">
          <mxGeometry width="50" height="50" relative="1" as="geometry">
            <mxPoint x="2781.88" y="630" as="sourcePoint" />
            <mxPoint x="2884.88" y="610" as="targetPoint" />
          </mxGeometry>
        </mxCell>
        <mxCell id="OE-wlXN0yPYNqNq270pY-42" value="" style="endArrow=none;html=1;rounded=0;exitX=0.5;exitY=0;exitDx=0;exitDy=0;entryX=0.5;entryY=1;entryDx=0;entryDy=0;" edge="1" parent="1" source="OE-wlXN0yPYNqNq270pY-39" target="1PIRo-R_bocPUixLHrss-89">
          <mxGeometry width="50" height="50" relative="1" as="geometry">
            <mxPoint x="2791.88" y="640" as="sourcePoint" />
            <mxPoint x="2894.88" y="620" as="targetPoint" />
          </mxGeometry>
        </mxCell>
        <mxCell id="OE-wlXN0yPYNqNq270pY-49" value="MESSAGE" style="shape=table;startSize=30;container=1;collapsible=1;childLayout=tableLayout;fixedRows=1;rowLines=0;fontStyle=1;align=center;resizeLast=1;" vertex="1" parent="1">
          <mxGeometry x="3245" y="1125" width="250" height="180" as="geometry" />
        </mxCell>
        <mxCell id="OE-wlXN0yPYNqNq270pY-50" value="" style="shape=partialRectangle;collapsible=0;dropTarget=0;pointerEvents=0;fillColor=none;points=[[0,0.5],[1,0.5]];portConstraint=eastwest;top=0;left=0;right=0;bottom=1;" vertex="1" parent="OE-wlXN0yPYNqNq270pY-49">
          <mxGeometry y="30" width="250" height="30" as="geometry" />
        </mxCell>
        <mxCell id="OE-wlXN0yPYNqNq270pY-51" value="PK" style="shape=partialRectangle;overflow=hidden;connectable=0;fillColor=none;top=0;left=0;bottom=0;right=0;fontStyle=1;" vertex="1" parent="OE-wlXN0yPYNqNq270pY-50">
          <mxGeometry width="30" height="30" as="geometry">
            <mxRectangle width="30" height="30" as="alternateBounds" />
          </mxGeometry>
        </mxCell>
        <mxCell id="OE-wlXN0yPYNqNq270pY-52" value="messages_UUID varchar(50)" style="shape=partialRectangle;overflow=hidden;connectable=0;fillColor=none;top=0;left=0;bottom=0;right=0;align=left;spacingLeft=6;fontStyle=5;" vertex="1" parent="OE-wlXN0yPYNqNq270pY-50">
          <mxGeometry x="30" width="220" height="30" as="geometry">
            <mxRectangle width="220" height="30" as="alternateBounds" />
          </mxGeometry>
        </mxCell>
        <mxCell id="OE-wlXN0yPYNqNq270pY-53" value="" style="shape=partialRectangle;collapsible=0;dropTarget=0;pointerEvents=0;fillColor=none;points=[[0,0.5],[1,0.5]];portConstraint=eastwest;top=0;left=0;right=0;bottom=0;" vertex="1" parent="OE-wlXN0yPYNqNq270pY-49">
          <mxGeometry y="60" width="250" height="30" as="geometry" />
        </mxCell>
        <mxCell id="OE-wlXN0yPYNqNq270pY-54" value="FK1" style="shape=partialRectangle;overflow=hidden;connectable=0;fillColor=none;top=0;left=0;bottom=0;right=0;" vertex="1" parent="OE-wlXN0yPYNqNq270pY-53">
          <mxGeometry width="30" height="30" as="geometry">
            <mxRectangle width="30" height="30" as="alternateBounds" />
          </mxGeometry>
        </mxCell>
        <mxCell id="OE-wlXN0yPYNqNq270pY-55" value="FK_chat_UUID varchar(50) UQ" style="shape=partialRectangle;overflow=hidden;connectable=0;fillColor=none;top=0;left=0;bottom=0;right=0;align=left;spacingLeft=6;" vertex="1" parent="OE-wlXN0yPYNqNq270pY-53">
          <mxGeometry x="30" width="220" height="30" as="geometry">
            <mxRectangle width="220" height="30" as="alternateBounds" />
          </mxGeometry>
        </mxCell>
        <mxCell id="OE-wlXN0yPYNqNq270pY-56" value="" style="shape=partialRectangle;collapsible=0;dropTarget=0;pointerEvents=0;fillColor=none;points=[[0,0.5],[1,0.5]];portConstraint=eastwest;top=0;left=0;right=0;bottom=0;" vertex="1" parent="OE-wlXN0yPYNqNq270pY-49">
          <mxGeometry y="90" width="250" height="30" as="geometry" />
        </mxCell>
        <mxCell id="OE-wlXN0yPYNqNq270pY-57" value="FK2" style="shape=partialRectangle;overflow=hidden;connectable=0;fillColor=none;top=0;left=0;bottom=0;right=0;" vertex="1" parent="OE-wlXN0yPYNqNq270pY-56">
          <mxGeometry width="30" height="30" as="geometry">
            <mxRectangle width="30" height="30" as="alternateBounds" />
          </mxGeometry>
        </mxCell>
        <mxCell id="OE-wlXN0yPYNqNq270pY-58" value="user_UUID varchar(50) UQ" style="shape=partialRectangle;overflow=hidden;connectable=0;fillColor=none;top=0;left=0;bottom=0;right=0;align=left;spacingLeft=6;" vertex="1" parent="OE-wlXN0yPYNqNq270pY-56">
          <mxGeometry x="30" width="220" height="30" as="geometry">
            <mxRectangle width="220" height="30" as="alternateBounds" />
          </mxGeometry>
        </mxCell>
        <mxCell id="OE-wlXN0yPYNqNq270pY-59" value="CHAT" style="shape=table;startSize=30;container=1;collapsible=1;childLayout=tableLayout;fixedRows=1;rowLines=0;fontStyle=1;align=center;resizeLast=1;" vertex="1" parent="1">
          <mxGeometry x="2845" y="1110" width="250" height="120" as="geometry" />
        </mxCell>
        <mxCell id="OE-wlXN0yPYNqNq270pY-60" value="" style="shape=partialRectangle;collapsible=0;dropTarget=0;pointerEvents=0;fillColor=none;points=[[0,0.5],[1,0.5]];portConstraint=eastwest;top=0;left=0;right=0;bottom=1;" vertex="1" parent="OE-wlXN0yPYNqNq270pY-59">
          <mxGeometry y="30" width="250" height="30" as="geometry" />
        </mxCell>
        <mxCell id="OE-wlXN0yPYNqNq270pY-61" value="PK" style="shape=partialRectangle;overflow=hidden;connectable=0;fillColor=none;top=0;left=0;bottom=0;right=0;fontStyle=1;" vertex="1" parent="OE-wlXN0yPYNqNq270pY-60">
          <mxGeometry width="30" height="30" as="geometry">
            <mxRectangle width="30" height="30" as="alternateBounds" />
          </mxGeometry>
        </mxCell>
        <mxCell id="OE-wlXN0yPYNqNq270pY-62" value="chat_UUID varchar(50)" style="shape=partialRectangle;overflow=hidden;connectable=0;fillColor=none;top=0;left=0;bottom=0;right=0;align=left;spacingLeft=6;fontStyle=5;" vertex="1" parent="OE-wlXN0yPYNqNq270pY-60">
          <mxGeometry x="30" width="220" height="30" as="geometry">
            <mxRectangle width="220" height="30" as="alternateBounds" />
          </mxGeometry>
        </mxCell>
        <mxCell id="OE-wlXN0yPYNqNq270pY-63" value="" style="shape=partialRectangle;collapsible=0;dropTarget=0;pointerEvents=0;fillColor=none;points=[[0,0.5],[1,0.5]];portConstraint=eastwest;top=0;left=0;right=0;bottom=0;" vertex="1" parent="OE-wlXN0yPYNqNq270pY-59">
          <mxGeometry y="60" width="250" height="30" as="geometry" />
        </mxCell>
        <mxCell id="OE-wlXN0yPYNqNq270pY-64" value="FK1" style="shape=partialRectangle;overflow=hidden;connectable=0;fillColor=none;top=0;left=0;bottom=0;right=0;" vertex="1" parent="OE-wlXN0yPYNqNq270pY-63">
          <mxGeometry width="30" height="30" as="geometry">
            <mxRectangle width="30" height="30" as="alternateBounds" />
          </mxGeometry>
        </mxCell>
        <mxCell id="OE-wlXN0yPYNqNq270pY-65" value="FK_user_UUID varchar(50) UQ" style="shape=partialRectangle;overflow=hidden;connectable=0;fillColor=none;top=0;left=0;bottom=0;right=0;align=left;spacingLeft=6;" vertex="1" parent="OE-wlXN0yPYNqNq270pY-63">
          <mxGeometry x="30" width="220" height="30" as="geometry">
            <mxRectangle width="220" height="30" as="alternateBounds" />
          </mxGeometry>
        </mxCell>
        <mxCell id="OE-wlXN0yPYNqNq270pY-66" value="" style="shape=partialRectangle;collapsible=0;dropTarget=0;pointerEvents=0;fillColor=none;points=[[0,0.5],[1,0.5]];portConstraint=eastwest;top=0;left=0;right=0;bottom=0;" vertex="1" parent="OE-wlXN0yPYNqNq270pY-59">
          <mxGeometry y="90" width="250" height="30" as="geometry" />
        </mxCell>
        <mxCell id="OE-wlXN0yPYNqNq270pY-67" value="" style="shape=partialRectangle;overflow=hidden;connectable=0;fillColor=none;top=0;left=0;bottom=0;right=0;" vertex="1" parent="OE-wlXN0yPYNqNq270pY-66">
          <mxGeometry width="30" height="30" as="geometry">
            <mxRectangle width="30" height="30" as="alternateBounds" />
          </mxGeometry>
        </mxCell>
        <mxCell id="OE-wlXN0yPYNqNq270pY-68" value="" style="shape=partialRectangle;overflow=hidden;connectable=0;fillColor=none;top=0;left=0;bottom=0;right=0;align=left;spacingLeft=6;" vertex="1" parent="OE-wlXN0yPYNqNq270pY-66">
          <mxGeometry x="30" width="220" height="30" as="geometry">
            <mxRectangle width="220" height="30" as="alternateBounds" />
          </mxGeometry>
        </mxCell>
        <mxCell id="OE-wlXN0yPYNqNq270pY-69" value="" style="endArrow=none;html=1;rounded=0;exitX=0;exitY=0;exitDx=0;exitDy=0;exitPerimeter=0;entryX=0.998;entryY=0.998;entryDx=0;entryDy=0;entryPerimeter=0;" edge="1" parent="OE-wlXN0yPYNqNq270pY-59" source="OE-wlXN0yPYNqNq270pY-66" target="OE-wlXN0yPYNqNq270pY-63">
          <mxGeometry width="50" height="50" relative="1" as="geometry">
            <mxPoint x="80" y="160" as="sourcePoint" />
            <mxPoint x="130" y="110" as="targetPoint" />
          </mxGeometry>
        </mxCell>
        <mxCell id="OE-wlXN0yPYNqNq270pY-70" value="USER" style="shape=table;startSize=30;container=1;collapsible=1;childLayout=tableLayout;fixedRows=1;rowLines=0;fontStyle=1;align=center;resizeLast=1;" vertex="1" parent="1">
          <mxGeometry x="2445" y="1325" width="250" height="117.5" as="geometry" />
        </mxCell>
        <mxCell id="OE-wlXN0yPYNqNq270pY-71" value="" style="shape=partialRectangle;collapsible=0;dropTarget=0;pointerEvents=0;fillColor=none;points=[[0,0.5],[1,0.5]];portConstraint=eastwest;top=0;left=0;right=0;bottom=1;" vertex="1" parent="OE-wlXN0yPYNqNq270pY-70">
          <mxGeometry y="30" width="250" height="30" as="geometry" />
        </mxCell>
        <mxCell id="OE-wlXN0yPYNqNq270pY-72" value="PK" style="shape=partialRectangle;overflow=hidden;connectable=0;fillColor=none;top=0;left=0;bottom=0;right=0;fontStyle=1;" vertex="1" parent="OE-wlXN0yPYNqNq270pY-71">
          <mxGeometry width="30" height="30" as="geometry">
            <mxRectangle width="30" height="30" as="alternateBounds" />
          </mxGeometry>
        </mxCell>
        <mxCell id="OE-wlXN0yPYNqNq270pY-73" value="user_UUID varchar(MAX)" style="shape=partialRectangle;overflow=hidden;connectable=0;fillColor=none;top=0;left=0;bottom=0;right=0;align=left;spacingLeft=6;fontStyle=5;" vertex="1" parent="OE-wlXN0yPYNqNq270pY-71">
          <mxGeometry x="30" width="220" height="30" as="geometry">
            <mxRectangle width="220" height="30" as="alternateBounds" />
          </mxGeometry>
        </mxCell>
        <mxCell id="OE-wlXN0yPYNqNq270pY-74" value="" style="shape=partialRectangle;collapsible=0;dropTarget=0;pointerEvents=0;fillColor=none;points=[[0,0.5],[1,0.5]];portConstraint=eastwest;top=0;left=0;right=0;bottom=0;" vertex="1" parent="OE-wlXN0yPYNqNq270pY-70">
          <mxGeometry y="60" width="250" height="30" as="geometry" />
        </mxCell>
        <mxCell id="OE-wlXN0yPYNqNq270pY-75" value="" style="shape=partialRectangle;overflow=hidden;connectable=0;fillColor=none;top=0;left=0;bottom=0;right=0;" vertex="1" parent="OE-wlXN0yPYNqNq270pY-74">
          <mxGeometry width="30" height="30" as="geometry">
            <mxRectangle width="30" height="30" as="alternateBounds" />
          </mxGeometry>
        </mxCell>
        <mxCell id="OE-wlXN0yPYNqNq270pY-76" value="user_name varchar(50)  UQ" style="shape=partialRectangle;overflow=hidden;connectable=0;fillColor=none;top=0;left=0;bottom=0;right=0;align=left;spacingLeft=6;" vertex="1" parent="OE-wlXN0yPYNqNq270pY-74">
          <mxGeometry x="30" width="220" height="30" as="geometry">
            <mxRectangle width="220" height="30" as="alternateBounds" />
          </mxGeometry>
        </mxCell>
        <mxCell id="OE-wlXN0yPYNqNq270pY-77" value="FAVORITE" style="shape=table;startSize=30;container=1;collapsible=1;childLayout=tableLayout;fixedRows=1;rowLines=0;fontStyle=1;align=center;resizeLast=1;" vertex="1" parent="1">
          <mxGeometry x="3255" y="1345" width="255" height="145" as="geometry" />
        </mxCell>
        <mxCell id="OE-wlXN0yPYNqNq270pY-78" value="" style="shape=partialRectangle;collapsible=0;dropTarget=0;pointerEvents=0;fillColor=none;points=[[0,0.5],[1,0.5]];portConstraint=eastwest;top=0;left=0;right=0;bottom=1;" vertex="1" parent="OE-wlXN0yPYNqNq270pY-77">
          <mxGeometry y="30" width="255" height="30" as="geometry" />
        </mxCell>
        <mxCell id="OE-wlXN0yPYNqNq270pY-79" value="PK" style="shape=partialRectangle;overflow=hidden;connectable=0;fillColor=none;top=0;left=0;bottom=0;right=0;fontStyle=1;" vertex="1" parent="OE-wlXN0yPYNqNq270pY-78">
          <mxGeometry width="30" height="30" as="geometry">
            <mxRectangle width="30" height="30" as="alternateBounds" />
          </mxGeometry>
        </mxCell>
        <mxCell id="OE-wlXN0yPYNqNq270pY-80" value="favorites_UUID int" style="shape=partialRectangle;overflow=hidden;connectable=0;fillColor=none;top=0;left=0;bottom=0;right=0;align=left;spacingLeft=6;fontStyle=5;" vertex="1" parent="OE-wlXN0yPYNqNq270pY-78">
          <mxGeometry x="30" width="225" height="30" as="geometry">
            <mxRectangle width="225" height="30" as="alternateBounds" />
          </mxGeometry>
        </mxCell>
        <mxCell id="OE-wlXN0yPYNqNq270pY-81" value="" style="shape=partialRectangle;collapsible=0;dropTarget=0;pointerEvents=0;fillColor=none;points=[[0,0.5],[1,0.5]];portConstraint=eastwest;top=0;left=0;right=0;bottom=0;" vertex="1" parent="OE-wlXN0yPYNqNq270pY-77">
          <mxGeometry y="60" width="255" height="30" as="geometry" />
        </mxCell>
        <mxCell id="OE-wlXN0yPYNqNq270pY-82" value="FK1" style="shape=partialRectangle;overflow=hidden;connectable=0;fillColor=none;top=0;left=0;bottom=0;right=0;" vertex="1" parent="OE-wlXN0yPYNqNq270pY-81">
          <mxGeometry width="30" height="30" as="geometry">
            <mxRectangle width="30" height="30" as="alternateBounds" />
          </mxGeometry>
        </mxCell>
        <mxCell id="OE-wlXN0yPYNqNq270pY-83" value="FK_user_UUID varchar(50) UQ" style="shape=partialRectangle;overflow=hidden;connectable=0;fillColor=none;top=0;left=0;bottom=0;right=0;align=left;spacingLeft=6;" vertex="1" parent="OE-wlXN0yPYNqNq270pY-81">
          <mxGeometry x="30" width="225" height="30" as="geometry">
            <mxRectangle width="225" height="30" as="alternateBounds" />
          </mxGeometry>
        </mxCell>
        <mxCell id="OE-wlXN0yPYNqNq270pY-84" value="" style="shape=partialRectangle;collapsible=0;dropTarget=0;pointerEvents=0;fillColor=none;points=[[0,0.5],[1,0.5]];portConstraint=eastwest;top=0;left=0;right=0;bottom=0;" vertex="1" parent="OE-wlXN0yPYNqNq270pY-77">
          <mxGeometry y="90" width="255" height="30" as="geometry" />
        </mxCell>
        <mxCell id="OE-wlXN0yPYNqNq270pY-85" value="" style="shape=partialRectangle;overflow=hidden;connectable=0;fillColor=none;top=0;left=0;bottom=0;right=0;" vertex="1" parent="OE-wlXN0yPYNqNq270pY-84">
          <mxGeometry width="30" height="30" as="geometry">
            <mxRectangle width="30" height="30" as="alternateBounds" />
          </mxGeometry>
        </mxCell>
        <mxCell id="OE-wlXN0yPYNqNq270pY-86" value="" style="shape=partialRectangle;overflow=hidden;connectable=0;fillColor=none;top=0;left=0;bottom=0;right=0;align=left;spacingLeft=6;" vertex="1" parent="OE-wlXN0yPYNqNq270pY-84">
          <mxGeometry x="30" width="225" height="30" as="geometry">
            <mxRectangle width="225" height="30" as="alternateBounds" />
          </mxGeometry>
        </mxCell>
        <mxCell id="OE-wlXN0yPYNqNq270pY-87" value="PREFERENCE" style="shape=table;startSize=30;container=1;collapsible=1;childLayout=tableLayout;fixedRows=1;rowLines=0;fontStyle=1;align=center;resizeLast=1;" vertex="1" parent="1">
          <mxGeometry x="2845" y="1505" width="250" height="180" as="geometry" />
        </mxCell>
        <mxCell id="OE-wlXN0yPYNqNq270pY-88" value="" style="shape=partialRectangle;collapsible=0;dropTarget=0;pointerEvents=0;fillColor=none;points=[[0,0.5],[1,0.5]];portConstraint=eastwest;top=0;left=0;right=0;bottom=1;" vertex="1" parent="OE-wlXN0yPYNqNq270pY-87">
          <mxGeometry y="30" width="250" height="30" as="geometry" />
        </mxCell>
        <mxCell id="OE-wlXN0yPYNqNq270pY-89" value="PK" style="shape=partialRectangle;overflow=hidden;connectable=0;fillColor=none;top=0;left=0;bottom=0;right=0;fontStyle=1;" vertex="1" parent="OE-wlXN0yPYNqNq270pY-88">
          <mxGeometry width="30" height="30" as="geometry">
            <mxRectangle width="30" height="30" as="alternateBounds" />
          </mxGeometry>
        </mxCell>
        <mxCell id="OE-wlXN0yPYNqNq270pY-90" value="preferences_UUID varchar(50)" style="shape=partialRectangle;overflow=hidden;connectable=0;fillColor=none;top=0;left=0;bottom=0;right=0;align=left;spacingLeft=6;fontStyle=5;" vertex="1" parent="OE-wlXN0yPYNqNq270pY-88">
          <mxGeometry x="30" width="220" height="30" as="geometry">
            <mxRectangle width="220" height="30" as="alternateBounds" />
          </mxGeometry>
        </mxCell>
        <mxCell id="OE-wlXN0yPYNqNq270pY-91" value="" style="shape=partialRectangle;collapsible=0;dropTarget=0;pointerEvents=0;fillColor=none;points=[[0,0.5],[1,0.5]];portConstraint=eastwest;top=0;left=0;right=0;bottom=0;" vertex="1" parent="OE-wlXN0yPYNqNq270pY-87">
          <mxGeometry y="60" width="250" height="30" as="geometry" />
        </mxCell>
        <mxCell id="OE-wlXN0yPYNqNq270pY-92" value="FK1" style="shape=partialRectangle;overflow=hidden;connectable=0;fillColor=none;top=0;left=0;bottom=0;right=0;" vertex="1" parent="OE-wlXN0yPYNqNq270pY-91">
          <mxGeometry width="30" height="30" as="geometry">
            <mxRectangle width="30" height="30" as="alternateBounds" />
          </mxGeometry>
        </mxCell>
        <mxCell id="OE-wlXN0yPYNqNq270pY-93" value="FK_user_UUID varchar(50) UQ" style="shape=partialRectangle;overflow=hidden;connectable=0;fillColor=none;top=0;left=0;bottom=0;right=0;align=left;spacingLeft=6;" vertex="1" parent="OE-wlXN0yPYNqNq270pY-91">
          <mxGeometry x="30" width="220" height="30" as="geometry">
            <mxRectangle width="220" height="30" as="alternateBounds" />
          </mxGeometry>
        </mxCell>
        <mxCell id="OE-wlXN0yPYNqNq270pY-94" value="" style="shape=partialRectangle;collapsible=0;dropTarget=0;pointerEvents=0;fillColor=none;points=[[0,0.5],[1,0.5]];portConstraint=eastwest;top=0;left=0;right=0;bottom=0;" vertex="1" parent="OE-wlXN0yPYNqNq270pY-87">
          <mxGeometry y="90" width="250" height="30" as="geometry" />
        </mxCell>
        <mxCell id="OE-wlXN0yPYNqNq270pY-95" value="" style="shape=partialRectangle;overflow=hidden;connectable=0;fillColor=none;top=0;left=0;bottom=0;right=0;" vertex="1" parent="OE-wlXN0yPYNqNq270pY-94">
          <mxGeometry width="30" height="30" as="geometry">
            <mxRectangle width="30" height="30" as="alternateBounds" />
          </mxGeometry>
        </mxCell>
        <mxCell id="OE-wlXN0yPYNqNq270pY-96" value="" style="shape=partialRectangle;overflow=hidden;connectable=0;fillColor=none;top=0;left=0;bottom=0;right=0;align=left;spacingLeft=6;" vertex="1" parent="OE-wlXN0yPYNqNq270pY-94">
          <mxGeometry x="30" width="220" height="30" as="geometry">
            <mxRectangle width="220" height="30" as="alternateBounds" />
          </mxGeometry>
        </mxCell>
        <mxCell id="OE-wlXN0yPYNqNq270pY-97" value="" style="edgeStyle=entityRelationEdgeStyle;endArrow=ERzeroToMany;startArrow=ERone;endFill=1;startFill=0;exitX=1.002;exitY=-0.003;exitDx=0;exitDy=0;entryX=0;entryY=0.5;entryDx=0;entryDy=0;exitPerimeter=0;" edge="1" parent="1" source="OE-wlXN0yPYNqNq270pY-63" target="OE-wlXN0yPYNqNq270pY-50">
          <mxGeometry width="100" height="100" relative="1" as="geometry">
            <mxPoint x="3185" y="1172.5" as="sourcePoint" />
            <mxPoint x="2855" y="1270" as="targetPoint" />
          </mxGeometry>
        </mxCell>
        <mxCell id="OE-wlXN0yPYNqNq270pY-98" value="" style="endArrow=none;html=1;rounded=0;exitX=0;exitY=0;exitDx=0;exitDy=0;exitPerimeter=0;entryX=0.998;entryY=0.998;entryDx=0;entryDy=0;entryPerimeter=0;" edge="1" parent="1">
          <mxGeometry width="50" height="50" relative="1" as="geometry">
            <mxPoint x="3245" y="1215" as="sourcePoint" />
            <mxPoint x="3495" y="1215" as="targetPoint" />
          </mxGeometry>
        </mxCell>
        <mxCell id="OE-wlXN0yPYNqNq270pY-99" value="" style="endArrow=none;html=1;rounded=0;exitX=0;exitY=0;exitDx=0;exitDy=0;exitPerimeter=0;entryX=0.998;entryY=0.998;entryDx=0;entryDy=0;entryPerimeter=0;" edge="1" parent="1">
          <mxGeometry width="50" height="50" relative="1" as="geometry">
            <mxPoint x="3245" y="1245" as="sourcePoint" />
            <mxPoint x="3495" y="1245" as="targetPoint" />
          </mxGeometry>
        </mxCell>
        <mxCell id="OE-wlXN0yPYNqNq270pY-100" value="" style="endArrow=none;html=1;rounded=0;" edge="1" parent="1">
          <mxGeometry width="50" height="50" relative="1" as="geometry">
            <mxPoint x="3275" y="1215" as="sourcePoint" />
            <mxPoint x="3275" y="1305" as="targetPoint" />
          </mxGeometry>
        </mxCell>
        <mxCell id="OE-wlXN0yPYNqNq270pY-101" value="date CurrentDateTime" style="shape=partialRectangle;overflow=hidden;connectable=0;fillColor=none;top=0;left=0;bottom=0;right=0;align=left;spacingLeft=6;" vertex="1" parent="1">
          <mxGeometry x="3275" y="1245" width="220" height="30" as="geometry">
            <mxRectangle width="220" height="30" as="alternateBounds" />
          </mxGeometry>
        </mxCell>
        <mxCell id="OE-wlXN0yPYNqNq270pY-102" value="" style="endArrow=none;html=1;rounded=0;" edge="1" parent="1">
          <mxGeometry width="50" height="50" relative="1" as="geometry">
            <mxPoint x="3285" y="1435" as="sourcePoint" />
            <mxPoint x="3285" y="1490" as="targetPoint" />
          </mxGeometry>
        </mxCell>
        <mxCell id="OE-wlXN0yPYNqNq270pY-103" value="" style="endArrow=none;html=1;rounded=0;exitX=0;exitY=0;exitDx=0;exitDy=0;exitPerimeter=0;entryX=1.001;entryY=0.987;entryDx=0;entryDy=0;entryPerimeter=0;" edge="1" parent="1" target="OE-wlXN0yPYNqNq270pY-81">
          <mxGeometry width="50" height="50" relative="1" as="geometry">
            <mxPoint x="3255" y="1435" as="sourcePoint" />
            <mxPoint x="3505" y="1435" as="targetPoint" />
          </mxGeometry>
        </mxCell>
        <mxCell id="OE-wlXN0yPYNqNq270pY-104" value="" style="endArrow=none;html=1;rounded=0;exitX=0;exitY=0;exitDx=0;exitDy=0;exitPerimeter=0;entryX=1;entryY=0.975;entryDx=0;entryDy=0;entryPerimeter=0;" edge="1" parent="1" target="OE-wlXN0yPYNqNq270pY-84">
          <mxGeometry width="50" height="50" relative="1" as="geometry">
            <mxPoint x="3255" y="1465" as="sourcePoint" />
            <mxPoint x="3505" y="1465" as="targetPoint" />
          </mxGeometry>
        </mxCell>
        <mxCell id="OE-wlXN0yPYNqNq270pY-105" value="name_character varchar (50) NOT NULL" style="shape=partialRectangle;overflow=hidden;connectable=0;fillColor=none;top=0;left=0;bottom=0;right=0;align=left;spacingLeft=6;" vertex="1" parent="1">
          <mxGeometry x="3285" y="1435" width="225" height="30" as="geometry">
            <mxRectangle width="220" height="30" as="alternateBounds" />
          </mxGeometry>
        </mxCell>
        <mxCell id="OE-wlXN0yPYNqNq270pY-106" value="" style="endArrow=none;html=1;rounded=0;exitX=0;exitY=0;exitDx=0;exitDy=0;exitPerimeter=0;entryX=0.999;entryY=-0.004;entryDx=0;entryDy=0;entryPerimeter=0;" edge="1" parent="1" target="OE-wlXN0yPYNqNq270pY-94">
          <mxGeometry width="50" height="50" relative="1" as="geometry">
            <mxPoint x="2845" y="1595" as="sourcePoint" />
            <mxPoint x="3095" y="1595" as="targetPoint" />
          </mxGeometry>
        </mxCell>
        <mxCell id="OE-wlXN0yPYNqNq270pY-107" value="" style="endArrow=none;html=1;rounded=0;exitX=0;exitY=0;exitDx=0;exitDy=0;exitPerimeter=0;entryX=0.998;entryY=0.996;entryDx=0;entryDy=0;entryPerimeter=0;" edge="1" parent="1" target="OE-wlXN0yPYNqNq270pY-94">
          <mxGeometry width="50" height="50" relative="1" as="geometry">
            <mxPoint x="2845" y="1625" as="sourcePoint" />
            <mxPoint x="3095" y="1625" as="targetPoint" />
          </mxGeometry>
        </mxCell>
        <mxCell id="OE-wlXN0yPYNqNq270pY-108" value="" style="endArrow=none;html=1;rounded=0;" edge="1" parent="1">
          <mxGeometry width="50" height="50" relative="1" as="geometry">
            <mxPoint x="2875" y="1595" as="sourcePoint" />
            <mxPoint x="2875" y="1685" as="targetPoint" />
          </mxGeometry>
        </mxCell>
        <mxCell id="OE-wlXN0yPYNqNq270pY-109" value="" style="endArrow=none;html=1;rounded=0;" edge="1" parent="1">
          <mxGeometry width="50" height="50" relative="1" as="geometry">
            <mxPoint x="2475" y="1385" as="sourcePoint" />
            <mxPoint x="2475" y="1442.5" as="targetPoint" />
          </mxGeometry>
        </mxCell>
        <mxCell id="OE-wlXN0yPYNqNq270pY-110" value="" style="endArrow=none;html=1;rounded=0;exitX=0;exitY=0;exitDx=0;exitDy=0;exitPerimeter=0;entryX=0.998;entryY=0.998;entryDx=0;entryDy=0;entryPerimeter=0;" edge="1" parent="1">
          <mxGeometry width="50" height="50" relative="1" as="geometry">
            <mxPoint x="2445" y="1415" as="sourcePoint" />
            <mxPoint x="2695" y="1415" as="targetPoint" />
          </mxGeometry>
        </mxCell>
        <mxCell id="OE-wlXN0yPYNqNq270pY-111" value="theme ENUM" style="shape=partialRectangle;overflow=hidden;connectable=0;fillColor=none;top=0;left=0;bottom=0;right=0;align=left;spacingLeft=6;" vertex="1" parent="1">
          <mxGeometry x="2875" y="1595" width="220" height="30" as="geometry">
            <mxRectangle width="220" height="30" as="alternateBounds" />
          </mxGeometry>
        </mxCell>
        <mxCell id="OE-wlXN0yPYNqNq270pY-112" value="push_notifications Boolean" style="shape=partialRectangle;overflow=hidden;connectable=0;fillColor=none;top=0;left=0;bottom=0;right=0;align=left;spacingLeft=6;" vertex="1" parent="1">
          <mxGeometry x="2875" y="1625" width="220" height="30" as="geometry">
            <mxRectangle width="220" height="30" as="alternateBounds" />
          </mxGeometry>
        </mxCell>
        <mxCell id="OE-wlXN0yPYNqNq270pY-113" value="wallpaper_img varchar(MAX)" style="shape=partialRectangle;overflow=hidden;connectable=0;fillColor=none;top=0;left=0;bottom=0;right=0;align=left;spacingLeft=6;" vertex="1" parent="1">
          <mxGeometry x="2875" y="1655" width="220" height="30" as="geometry">
            <mxRectangle width="220" height="30" as="alternateBounds" />
          </mxGeometry>
        </mxCell>
        <mxCell id="OE-wlXN0yPYNqNq270pY-114" value="" style="endArrow=none;html=1;rounded=0;exitX=0;exitY=0;exitDx=0;exitDy=0;exitPerimeter=0;" edge="1" parent="1">
          <mxGeometry width="50" height="50" relative="1" as="geometry">
            <mxPoint x="2846" y="1655" as="sourcePoint" />
            <mxPoint x="3095" y="1655" as="targetPoint" />
          </mxGeometry>
        </mxCell>
        <mxCell id="OE-wlXN0yPYNqNq270pY-115" value="" style="edgeStyle=entityRelationEdgeStyle;endArrow=ERzeroToMany;startArrow=ERone;endFill=1;startFill=0;exitX=1;exitY=0.5;exitDx=0;exitDy=0;entryX=0;entryY=0.5;entryDx=0;entryDy=0;" edge="1" parent="1" source="OE-wlXN0yPYNqNq270pY-71" target="OE-wlXN0yPYNqNq270pY-60">
          <mxGeometry width="100" height="100" relative="1" as="geometry">
            <mxPoint x="2695" y="1370" as="sourcePoint" />
            <mxPoint x="2745" y="1260" as="targetPoint" />
          </mxGeometry>
        </mxCell>
        <mxCell id="OE-wlXN0yPYNqNq270pY-116" value="" style="edgeStyle=entityRelationEdgeStyle;endArrow=ERzeroToMany;startArrow=ERone;endFill=1;startFill=0;exitX=1;exitY=0.5;exitDx=0;exitDy=0;entryX=0;entryY=0.5;entryDx=0;entryDy=0;" edge="1" parent="1" source="OE-wlXN0yPYNqNq270pY-71" target="OE-wlXN0yPYNqNq270pY-122">
          <mxGeometry width="100" height="100" relative="1" as="geometry">
            <mxPoint x="2695" y="1370" as="sourcePoint" />
            <mxPoint x="2755" y="1370" as="targetPoint" />
          </mxGeometry>
        </mxCell>
        <mxCell id="OE-wlXN0yPYNqNq270pY-117" value="" style="edgeStyle=entityRelationEdgeStyle;endArrow=ERzeroToMany;startArrow=ERone;endFill=1;startFill=0;exitX=1;exitY=0.5;exitDx=0;exitDy=0;entryX=0;entryY=0.5;entryDx=0;entryDy=0;" edge="1" parent="1" source="OE-wlXN0yPYNqNq270pY-71" target="OE-wlXN0yPYNqNq270pY-88">
          <mxGeometry width="100" height="100" relative="1" as="geometry">
            <mxPoint x="2695" y="1370" as="sourcePoint" />
            <mxPoint x="2745" y="1470" as="targetPoint" />
          </mxGeometry>
        </mxCell>
        <mxCell id="OE-wlXN0yPYNqNq270pY-118" value="message varchar(MAX)" style="shape=partialRectangle;overflow=hidden;connectable=0;fillColor=none;top=0;left=0;bottom=0;right=0;align=left;spacingLeft=6;" vertex="1" parent="1">
          <mxGeometry x="3275" y="1275" width="220" height="30" as="geometry">
            <mxRectangle width="220" height="30" as="alternateBounds" />
          </mxGeometry>
        </mxCell>
        <mxCell id="OE-wlXN0yPYNqNq270pY-119" value="" style="endArrow=none;html=1;rounded=0;exitX=0;exitY=0;exitDx=0;exitDy=0;exitPerimeter=0;entryX=0.998;entryY=0.998;entryDx=0;entryDy=0;entryPerimeter=0;" edge="1" parent="1">
          <mxGeometry width="50" height="50" relative="1" as="geometry">
            <mxPoint x="3245" y="1275" as="sourcePoint" />
            <mxPoint x="3495" y="1275" as="targetPoint" />
          </mxGeometry>
        </mxCell>
        <mxCell id="OE-wlXN0yPYNqNq270pY-120" value="user_password varchar(50) NOT NULL" style="shape=partialRectangle;overflow=hidden;connectable=0;fillColor=none;top=0;left=0;bottom=0;right=0;align=left;spacingLeft=6;" vertex="1" parent="1">
          <mxGeometry x="2475" y="1415" width="220" height="30" as="geometry">
            <mxRectangle width="220" height="30" as="alternateBounds" />
          </mxGeometry>
        </mxCell>
        <mxCell id="OE-wlXN0yPYNqNq270pY-121" value="UserFavorite" style="shape=table;startSize=30;container=1;collapsible=1;childLayout=tableLayout;fixedRows=1;rowLines=0;fontStyle=1;align=center;resizeLast=1;" vertex="1" parent="1">
          <mxGeometry x="2855" y="1295" width="250" height="120" as="geometry" />
        </mxCell>
        <mxCell id="OE-wlXN0yPYNqNq270pY-122" value="" style="shape=partialRectangle;collapsible=0;dropTarget=0;pointerEvents=0;fillColor=none;points=[[0,0.5],[1,0.5]];portConstraint=eastwest;top=0;left=0;right=0;bottom=1;" vertex="1" parent="OE-wlXN0yPYNqNq270pY-121">
          <mxGeometry y="30" width="250" height="30" as="geometry" />
        </mxCell>
        <mxCell id="OE-wlXN0yPYNqNq270pY-123" value="FK1" style="shape=partialRectangle;overflow=hidden;connectable=0;fillColor=none;top=0;left=0;bottom=0;right=0;fontStyle=1;" vertex="1" parent="OE-wlXN0yPYNqNq270pY-122">
          <mxGeometry width="30" height="30" as="geometry">
            <mxRectangle width="30" height="30" as="alternateBounds" />
          </mxGeometry>
        </mxCell>
        <mxCell id="OE-wlXN0yPYNqNq270pY-124" value="FK_user_UUID varchar(50) UQ" style="shape=partialRectangle;overflow=hidden;connectable=0;fillColor=none;top=0;left=0;bottom=0;right=0;align=left;spacingLeft=6;fontStyle=5;" vertex="1" parent="OE-wlXN0yPYNqNq270pY-122">
          <mxGeometry x="30" width="220" height="30" as="geometry">
            <mxRectangle width="220" height="30" as="alternateBounds" />
          </mxGeometry>
        </mxCell>
        <mxCell id="OE-wlXN0yPYNqNq270pY-125" value="" style="shape=partialRectangle;collapsible=0;dropTarget=0;pointerEvents=0;fillColor=none;points=[[0,0.5],[1,0.5]];portConstraint=eastwest;top=0;left=0;right=0;bottom=0;" vertex="1" parent="OE-wlXN0yPYNqNq270pY-121">
          <mxGeometry y="60" width="250" height="30" as="geometry" />
        </mxCell>
        <mxCell id="OE-wlXN0yPYNqNq270pY-126" value="FK2" style="shape=partialRectangle;overflow=hidden;connectable=0;fillColor=none;top=0;left=0;bottom=0;right=0;" vertex="1" parent="OE-wlXN0yPYNqNq270pY-125">
          <mxGeometry width="30" height="30" as="geometry">
            <mxRectangle width="30" height="30" as="alternateBounds" />
          </mxGeometry>
        </mxCell>
        <mxCell id="OE-wlXN0yPYNqNq270pY-127" value="FK_favorite_UUID varchar(50) UQ" style="shape=partialRectangle;overflow=hidden;connectable=0;fillColor=none;top=0;left=0;bottom=0;right=0;align=left;spacingLeft=6;" vertex="1" parent="OE-wlXN0yPYNqNq270pY-125">
          <mxGeometry x="30" width="220" height="30" as="geometry">
            <mxRectangle width="220" height="30" as="alternateBounds" />
          </mxGeometry>
        </mxCell>
        <mxCell id="OE-wlXN0yPYNqNq270pY-128" value="" style="shape=partialRectangle;collapsible=0;dropTarget=0;pointerEvents=0;fillColor=none;points=[[0,0.5],[1,0.5]];portConstraint=eastwest;top=0;left=0;right=0;bottom=0;" vertex="1" parent="OE-wlXN0yPYNqNq270pY-121">
          <mxGeometry y="90" width="250" height="30" as="geometry" />
        </mxCell>
        <mxCell id="OE-wlXN0yPYNqNq270pY-129" value="" style="shape=partialRectangle;overflow=hidden;connectable=0;fillColor=none;top=0;left=0;bottom=0;right=0;" vertex="1" parent="OE-wlXN0yPYNqNq270pY-128">
          <mxGeometry width="30" height="30" as="geometry">
            <mxRectangle width="30" height="30" as="alternateBounds" />
          </mxGeometry>
        </mxCell>
        <mxCell id="OE-wlXN0yPYNqNq270pY-130" value="" style="shape=partialRectangle;overflow=hidden;connectable=0;fillColor=none;top=0;left=0;bottom=0;right=0;align=left;spacingLeft=6;" vertex="1" parent="OE-wlXN0yPYNqNq270pY-128">
          <mxGeometry x="30" width="220" height="30" as="geometry">
            <mxRectangle width="220" height="30" as="alternateBounds" />
          </mxGeometry>
        </mxCell>
        <mxCell id="OE-wlXN0yPYNqNq270pY-131" value="mythic_rating int" style="shape=partialRectangle;overflow=hidden;connectable=0;fillColor=none;top=0;left=0;bottom=0;right=0;align=left;spacingLeft=6;" vertex="1" parent="1">
          <mxGeometry x="3285" y="1465" width="220" height="25" as="geometry">
            <mxRectangle width="220" height="30" as="alternateBounds" />
          </mxGeometry>
        </mxCell>
        <mxCell id="OE-wlXN0yPYNqNq270pY-132" value="" style="edgeStyle=entityRelationEdgeStyle;endArrow=ERzeroToMany;startArrow=ERone;endFill=1;startFill=0;exitX=1;exitY=0.5;exitDx=0;exitDy=0;entryX=0;entryY=0.5;entryDx=0;entryDy=0;" edge="1" parent="1" source="OE-wlXN0yPYNqNq270pY-125" target="OE-wlXN0yPYNqNq270pY-78">
          <mxGeometry width="100" height="100" relative="1" as="geometry">
            <mxPoint x="3106" y="1180" as="sourcePoint" />
            <mxPoint x="3255" y="1210" as="targetPoint" />
          </mxGeometry>
        </mxCell>
        <mxCell id="OE-wlXN0yPYNqNq270pY-133" value="" style="rounded=0;whiteSpace=wrap;html=1;" vertex="1" parent="1">
          <mxGeometry x="2440.32" y="1110" width="1158.12" height="580" as="geometry" />
        </mxCell>
      </root>
    </mxGraphModel>
  </diagram>
</mxfile>
